<svg xmlns="http://www.w3.org/2000/svg" viewBox="0 0 24 24"><defs><style>.a{fill:none;stroke:#000;stroke-linecap:round;stroke-miterlimit:10}</style></defs><title>analytics-graph-bar</title><line x1=".5" x2="23.5" y1="23.5" y2="23.5" class="a"/><path d="M4.5,19a.5.5,0,0,0-.5-.5H2a.5.5,0,0,0-.5.5v4.5h3Z" class="a"/><path d="M10.5,14a.5.5,0,0,0-.5-.5H8a.5.5,0,0,0-.5.5v9.5h3Z" class="a"/><path d="M16.5,16a.5.5,0,0,0-.5-.5H14a.5.5,0,0,0-.5.5v7.5h3Z" class="a"/><path d="M22.5,9a.5.5,0,0,0-.5-.5H20a.5.5,0,0,0-.5.5V23.5h3Z" class="a"/><circle cx="3" cy="11.5" r="1.5" class="a"/><circle cx="9" cy="6.5" r="1.5" class="a"/><circle cx="15" cy="8.5" r="1.5" class="a"/><circle cx="21" cy="2" r="1.5" class="a"/><line x1="4.261" x2="7.848" y1="10.45" y2="7.46" class="a"/><line x1="10.424" x2="13.577" y1="6.974" y2="8.025" class="a"/><line x1="19.8" x2="16.041" y1="2.9" y2="7.285" class="a"/></svg>