<svg xmlns="http://www.w3.org/2000/svg" viewBox="0 0 64 64"><defs><style>.cls-1{fill:#ffb74e;stroke:#ffb74e}.cls-1,.cls-10,.cls-2,.cls-4,.cls-5,.cls-6{stroke-linecap:round;stroke-linejoin:round}.cls-1,.cls-10,.cls-2,.cls-4,.cls-5,.cls-6,.cls-9{stroke-width:2px}.cls-2{fill:none;stroke:#54596e}.cls-3{fill:#eaca81}.cls-4{fill:#b5c1c6}.cls-4,.cls-9{stroke:#b5c1c6}.cls-5{fill:#ffe082;stroke:#ffe082}.cls-6,.cls-8{fill:#4f4f4f}.cls-6{stroke:#4f4f4f}.cls-7{fill:#ff4931}.cls-11,.cls-9{fill:#cfd8dc}.cls-9{stroke-miterlimit:10}.cls-10{fill:#fff;stroke:#cfd8dc}.cls-12{fill:#aaa}</style></defs><title>programmer</title><g id="programmer"><path d="M43.26,43H9.74C4.91,43,1,46.35,1,50.49V61H51V49.63C51,46,47.54,43,43.26,43Z" class="cls-1"/><line x1="11" x2="11" y1="55" y2="60" class="cls-2"/><line x1="41" x2="41" y1="55" y2="60" class="cls-2"/><circle cx="45" cy="18" r="4" class="cls-3"/><circle cx="7" cy="18" r="4" class="cls-3"/><path d="M31.9,44H20.1A20.71,20.71,0,0,1,7,24.78V4.59A2.59,2.59,0,0,1,9.59,2H42.41A2.59,2.59,0,0,1,45,4.59V24.78A20.71,20.71,0,0,1,31.9,44Z" class="cls-4"/><path d="M7,23.54C7,25.45,9,27,11.38,27H40.62C43,27,45,25.45,45,23.54V9H12.75C9.57,9,7,11.76,7,13.93Z" class="cls-5"/><path d="M21,31a5,5,0,0,0,10,0Z" class="cls-6"/><ellipse cx="26" cy="34" class="cls-7" rx="2" ry="1"/><circle cx="17.5" cy="19.5" r="1.5" class="cls-8"/><circle cx="34.5" cy="19.5" r="1.5" class="cls-8"/><rect width="18" height="8" x="27" y="1" class="cls-9" rx="2.5" ry="2.5"/><rect width="51" height="24" x="11" y="39" class="cls-10" rx="4" ry="4"/><path d="M58,59H15a4,4,0,0,1-4-4v4a4,4,0,0,0,4,4H58a4,4,0,0,0,4-4V55A4,4,0,0,1,58,59Z" class="cls-11"/><rect width="25" height="3" x="24" y="53" class="cls-12"/><rect width="3" height="3" x="19" y="53" class="cls-12"/><rect width="3" height="3" x="14" y="53" class="cls-12"/><rect width="3" height="3" x="56" y="53" class="cls-12"/><rect width="3" height="3" x="51" y="53" class="cls-12"/><rect width="3" height="3" x="22" y="48" class="cls-12"/><rect width="3" height="3" x="17" y="48" class="cls-12"/><rect width="7" height="6" x="52" y="44" class="cls-12"/><rect width="3" height="3" x="37" y="48" class="cls-12"/><rect width="3" height="3" x="42" y="48" class="cls-12"/><rect width="3" height="3" x="32" y="48" class="cls-12"/><rect width="3" height="3" x="36" y="43" class="cls-12"/><rect width="3" height="3" x="31" y="43" class="cls-12"/><rect width="3" height="3" x="26" y="43" class="cls-12"/><rect width="3" height="3" x="21" y="43" class="cls-12"/><rect width="3" height="3" x="16" y="43" class="cls-12"/><rect width="3" height="3" x="27" y="48" class="cls-12"/><rect width="3" height="3" x="41" y="43" class="cls-12"/><rect width="3" height="3" x="47" y="48" class="cls-12"/><rect width="3" height="3" x="46" y="43" class="cls-12"/></g></svg>